<svg xmlns="http://www.w3.org/2000/svg" viewBox="0 0 183.42 23.59">
    <title>logo-small-purple</title>
    <path d="M13.45,12c0,3.72-2.7,6.6-6,6.6a4.69,4.69,0,0,1-3.72-1.53v6.17H0V5.75H3.75V6.92A4.68,4.68,0,0,1,7.47,5.4C10.75,5.4,13.45,8.27,13.45,12ZM9.7,12A2.85,2.85,0,0,0,6.72,9a2.85,2.85,0,0,0-3,3.05,2.86,2.86,0,0,0,3,3.05A2.86,2.86,0,0,0,9.7,12Z" style="fill:#bd23ff"/>
    <path d="M15.57,0h3.75V18.25H15.57Z" style="fill:#bd23ff"/>
    <path d="M34.9,5.75v12.5H31.15V17.07a4.71,4.71,0,0,1-3.73,1.53c-3.27,0-6-2.88-6-6.6s2.7-6.6,6-6.6a4.7,4.7,0,0,1,3.73,1.52V5.75ZM31.15,12a3,3,0,1,0-5.95,0,3,3,0,1,0,5.95,0Z" style="fill:#bd23ff"/>
    <path d="M49.52,5.75,45.25,17.87c-1.4,4-3.63,5.55-7.13,5.37V19.75c1.75,0,2.58-.55,3.13-2.08l-5-11.92H40.4l2.77,7.65,2.35-7.65Z" style="fill:#bd23ff"/>
    <path d="M64.35,12c0,3.72-2.7,6.6-6,6.6a4.69,4.69,0,0,1-3.72-1.53v1.18H50.9V.75h3.75V6.92A4.68,4.68,0,0,1,58.37,5.4C61.65,5.4,64.35,8.27,64.35,12ZM60.6,12a3,3,0,1,0-6,0,3,3,0,1,0,6,0Z" style="fill:#bd23ff"/>
    <path d="M78.3,5.75v12.5H74.55V17.07A4.28,4.28,0,0,1,71,18.6c-2.52,0-4.67-1.8-4.67-5.18V5.75h3.75v7.12a2.06,2.06,0,0,0,2.17,2.28c1.38,0,2.33-.8,2.33-2.58V5.75Z" style="fill:#bd23ff"/>
    <path d="M92.92,5.75,88.65,17.87c-1.4,4-3.63,5.55-7.13,5.37V19.75c1.75,0,2.58-.55,3.13-2.08l-5-11.92H83.8l2.77,7.65,2.35-7.65Z" style="fill:#bd23ff"/>
    <path d="M91.8,16.22a2.38,2.38,0,1,1,2.37,2.38A2.38,2.38,0,0,1,91.8,16.22Z" style="fill:#bd23ff"/>
    <path d="M110.87,5.75v12.5h-3.75V17.07a4.69,4.69,0,0,1-3.72,1.53c-3.28,0-6-2.88-6-6.6s2.7-6.6,6-6.6a4.68,4.68,0,0,1,3.72,1.52V5.75ZM107.12,12a3,3,0,1,0-6,0,3,3,0,1,0,6,0Z" style="fill:#bd23ff"/>
    <path d="M126.45,5.75V17.62c0,4.2-3.28,6-6.6,6-2.6,0-4.78-1-5.93-3l3.2-1.85A2.85,2.85,0,0,0,120,20.29c1.75,0,2.83-.89,2.83-2.67V16.47a4.44,4.44,0,0,1-3.65,1.63A6.19,6.19,0,0,1,113,11.75a6.19,6.19,0,0,1,6.15-6.35A4.47,4.47,0,0,1,122.8,7V5.75Zm-3.65,6a3,3,0,0,0-6,0,3,3,0,0,0,6,0Z" style="fill:#bd23ff"/>
    <path d="M135.55,15.25a3.27,3.27,0,0,0,2.4-.95L141,16a6.36,6.36,0,0,1-5.45,2.58c-4.28,0-6.93-2.88-6.93-6.6a6.41,6.41,0,0,1,6.65-6.6,6.31,6.31,0,0,1,6.35,6.6,7.34,7.34,0,0,1-.15,1.5h-8.87A2.84,2.84,0,0,0,135.55,15.25Zm2.3-4.55a2.82,2.82,0,0,0-5.38,0Z" style="fill:#bd23ff"/>
    <path d="M155.69,10.57v7.68H152V11.12a2.06,2.06,0,0,0-2.18-2.27c-1.37,0-2.32.8-2.32,2.57v6.83H143.7V5.75h3.75V6.92A4.27,4.27,0,0,1,151,5.4C153.55,5.4,155.69,7.2,155.69,10.57Z" style="fill:#bd23ff"/>
    <path d="M157.65,12a6.61,6.61,0,0,1,12.27-3.4l-3.27,1.9a2.59,2.59,0,0,0-2.43-1.4A2.75,2.75,0,0,0,161.4,12a2.75,2.75,0,0,0,2.82,2.9,2.58,2.58,0,0,0,2.43-1.4l3.27,1.87a6.38,6.38,0,0,1-5.65,3.23A6.47,6.47,0,0,1,157.65,12Z" style="fill:#bd23ff"/>
    <path d="M183.42,5.75l-4.27,12.12c-1.4,4-3.63,5.55-7.13,5.37V19.75c1.75,0,2.58-.55,3.13-2.08l-5-11.92h4.13l2.77,7.65,2.35-7.65Z" style="fill:#bd23ff"/>
</svg>