<svg width="102" height="44" viewBox="0 0 102 44" fill="none" xmlns="http://www.w3.org/2000/svg">
<path d="M57.9288 37.5614C57.0834 37.5614 56.3918 36.8772 56.3918 36.0316C56.3918 35.1859 57.0758 34.5017 57.9288 34.5017C58.7742 34.5017 59.4658 35.1859 59.4658 36.0316C59.4658 36.8772 58.7818 37.5614 57.9288 37.5614Z" fill="#30305D"/>
<path d="M57.9288 26.0609C57.0834 26.0609 56.3918 25.3767 56.3918 24.5311C56.3918 23.6855 57.0758 23.0013 57.9288 23.0013C58.7742 23.0013 59.4658 23.6855 59.4658 24.5311C59.4658 25.3767 58.7818 26.0609 57.9288 26.0609Z" fill="#30305D"/>
<path d="M57.9288 14.5604C57.0834 14.5604 56.3918 13.8762 56.3918 13.0306C56.3918 12.185 57.0758 11.5007 57.9288 11.5007C58.7742 11.5007 59.4658 12.185 59.4658 13.0306C59.4658 13.8762 58.7818 14.5604 57.9288 14.5604Z" fill="#30305D"/>
<path d="M57.9288 3.05988C57.0834 3.05988 56.3918 2.37572 56.3918 1.53009C56.3918 0.684465 57.0758 0.000244141 57.9288 0.000244141C58.7742 0.000244141 59.4658 0.684465 59.4658 1.53009C59.4658 2.37572 58.7818 3.05988 57.9288 3.05988Z" fill="#30305D"/>
<path d="M80.3693 37.5614C79.524 37.5614 78.8323 36.8772 78.8323 36.0316C78.8323 35.1859 79.5163 34.5017 80.3693 34.5017C81.2147 34.5017 81.9064 35.1859 81.9064 36.0316C81.9064 36.8772 81.2147 37.5614 80.3693 37.5614Z" fill="#30305D"/>
<path d="M80.3693 26.0609C79.524 26.0609 78.8323 25.3767 78.8323 24.5311C78.8323 23.6855 79.5163 23.0013 80.3693 23.0013C81.2147 23.0013 81.9064 23.6855 81.9064 24.5311C81.9064 25.3767 81.2147 26.0609 80.3693 26.0609Z" fill="#30305D"/>
<path d="M80.3693 14.5604C79.524 14.5604 78.8323 13.8762 78.8323 13.0306C78.8323 12.185 79.5163 11.5007 80.3693 11.5007C81.2147 11.5007 81.9064 12.185 81.9064 13.0306C81.9064 13.8762 81.2147 14.5604 80.3693 14.5604Z" fill="#30305D"/>
<path d="M80.3693 3.05988C79.524 3.05988 78.8323 2.37572 78.8323 1.53009C78.8323 0.684465 79.5163 0.000244141 80.3693 0.000244141C81.2147 0.000244141 81.9064 0.684465 81.9064 1.53009C81.9064 2.37572 81.2147 3.05988 80.3693 3.05988Z" fill="#30305D"/>
<path d="M63.2853 43.3193C62.44 43.3193 61.7483 42.6351 61.7483 41.7895C61.7483 40.9439 62.4323 40.2597 63.2853 40.2597C64.1307 40.2597 64.8224 40.9439 64.8224 41.7895C64.8224 42.6351 64.1307 43.3193 63.2853 43.3193Z" fill="#30305D"/>
<path d="M63.2853 31.8111C62.44 31.8111 61.7483 31.1269 61.7483 30.2813C61.7483 29.4357 62.4323 28.7515 63.2853 28.7515C64.1307 28.7515 64.8224 29.4357 64.8224 30.2813C64.8224 31.1269 64.1307 31.8111 63.2853 31.8111Z" fill="#30305D"/>
<path d="M63.2853 20.3106C62.44 20.3106 61.7483 19.6264 61.7483 18.7808C61.7483 17.9352 62.4323 17.251 63.2853 17.251C64.1307 17.251 64.8224 17.9352 64.8224 18.7808C64.8224 19.6264 64.1307 20.3106 63.2853 20.3106Z" fill="#30305D"/>
<path d="M63.2853 8.81012C62.44 8.81012 61.7483 8.12596 61.7483 7.28033C61.7483 6.43471 62.4323 5.75055 63.2853 5.75055C64.1307 5.75055 64.8224 6.43471 64.8224 7.28033C64.8224 8.12596 64.1307 8.81012 63.2853 8.81012Z" fill="#30305D"/>
<path d="M68.9416 37.5614C68.0962 37.5614 67.4046 36.8772 67.4046 36.0316C67.4046 35.1859 68.0885 34.5017 68.9416 34.5017C69.787 34.5017 70.4786 35.1859 70.4786 36.0316C70.4709 36.8772 69.787 37.5614 68.9416 37.5614Z" fill="#30305D"/>
<path d="M68.9416 26.0609C68.0962 26.0609 67.4046 25.3767 67.4046 24.5311C67.4046 23.6855 68.0885 23.0013 68.9416 23.0013C69.787 23.0013 70.4786 23.6855 70.4786 24.5311C70.4786 25.3767 69.787 26.0609 68.9416 26.0609Z" fill="#30305D"/>
<path d="M68.9416 14.5604C68.0962 14.5604 67.4046 13.8762 67.4046 13.0306C67.4046 12.185 68.0885 11.5007 68.9416 11.5007C69.787 11.5007 70.4786 12.185 70.4786 13.0306C70.4709 13.8762 69.787 14.5604 68.9416 14.5604Z" fill="#30305D"/>
<path d="M68.9416 3.05988C68.0962 3.05988 67.4046 2.37572 67.4046 1.53009C67.4046 0.684465 68.0885 0.000244141 68.9416 0.000244141C69.787 0.000244141 70.4786 0.684465 70.4786 1.53009C70.4709 2.37572 69.787 3.05988 68.9416 3.05988Z" fill="#30305D"/>
<path d="M74.667 43.3193C73.8216 43.3193 73.13 42.6351 73.13 41.7895C73.13 40.9439 73.8139 40.2597 74.667 40.2597C75.5123 40.2597 76.204 40.9439 76.204 41.7895C76.204 42.6351 75.5123 43.3193 74.667 43.3193Z" fill="#30305D"/>
<path d="M74.667 31.8111C73.8216 31.8111 73.13 31.1269 73.13 30.2813C73.13 29.4357 73.8139 28.7515 74.667 28.7515C75.5123 28.7515 76.204 29.4357 76.204 30.2813C76.204 31.1269 75.5123 31.8111 74.667 31.8111Z" fill="#30305D"/>
<path d="M74.667 20.3106C73.8216 20.3106 73.13 19.6264 73.13 18.7808C73.13 17.9352 73.8139 17.251 74.667 17.251C75.5123 17.251 76.204 17.9352 76.204 18.7808C76.1963 19.6264 75.5123 20.3106 74.667 20.3106Z" fill="#30305D"/>
<path d="M74.667 8.81012C73.8216 8.81012 73.13 8.12596 73.13 7.28033C73.13 6.43471 73.8139 5.75055 74.667 5.75055C75.5123 5.75055 76.204 6.43471 76.204 7.28033C76.204 8.12596 75.5123 8.81012 74.667 8.81012Z" fill="#30305D"/>
<path d="M47.0237 37.5614C46.1783 37.5614 45.4866 36.8772 45.4866 36.0316C45.4866 35.1859 46.1706 34.5017 47.0237 34.5017C47.8767 34.5017 48.5607 35.1859 48.5607 36.0316C48.5607 36.8772 47.869 37.5614 47.0237 37.5614Z" fill="#30305D"/>
<path d="M47.0237 26.0609C46.1783 26.0609 45.4866 25.3767 45.4866 24.5311C45.4866 23.6855 46.1706 23.0013 47.0237 23.0013C47.8767 23.0013 48.5607 23.6855 48.5607 24.5311C48.553 25.3767 47.869 26.0609 47.0237 26.0609Z" fill="#30305D"/>
<path d="M47.0237 14.5604C46.1783 14.5604 45.4866 13.8762 45.4866 13.0306C45.4866 12.185 46.1706 11.5007 47.0237 11.5007C47.8767 11.5007 48.5607 12.185 48.5607 13.0306C48.5607 13.8762 47.869 14.5604 47.0237 14.5604Z" fill="#30305D"/>
<path d="M47.0237 3.05988C46.1783 3.05988 45.4866 2.37572 45.4866 1.53009C45.4866 0.684465 46.1706 0.000244141 47.0237 0.000244141C47.8767 0.000244141 48.5607 0.684465 48.5607 1.53009C48.5607 2.37572 47.869 3.05988 47.0237 3.05988Z" fill="#30305D"/>
<path d="M52.6722 43.3193C51.8268 43.3193 51.1352 42.6351 51.1352 41.7895C51.1352 40.9439 51.8191 40.2597 52.6722 40.2597C53.5176 40.2597 54.2092 40.9439 54.2092 41.7895C54.2092 42.6351 53.5176 43.3193 52.6722 43.3193Z" fill="#30305D"/>
<path d="M52.6722 31.8111C51.8268 31.8111 51.1352 31.1269 51.1352 30.2813C51.1352 29.4357 51.8191 28.7515 52.6722 28.7515C53.5176 28.7515 54.2092 29.4357 54.2092 30.2813C54.2092 31.1269 53.5176 31.8111 52.6722 31.8111Z" fill="#30305D"/>
<path d="M52.6722 20.3106C51.8268 20.3106 51.1352 19.6264 51.1352 18.7808C51.1352 17.9352 51.8191 17.251 52.6722 17.251C53.5176 17.251 54.2092 17.9352 54.2092 18.7808C54.2092 19.6264 53.5176 20.3106 52.6722 20.3106Z" fill="#30305D"/>
<path d="M52.6722 8.81012C51.8268 8.81012 51.1352 8.12596 51.1352 7.28033C51.1352 6.43471 51.8191 5.75055 52.6722 5.75055C53.5176 5.75055 54.2092 6.43471 54.2092 7.28033C54.2092 8.12596 53.5176 8.81012 52.6722 8.81012Z" fill="#30305D"/>
<path d="M30.1241 40.2597C30.973 40.2597 31.6611 40.9446 31.6611 41.7895C31.6611 42.6344 30.973 43.3193 30.1241 43.3193C29.2752 43.3193 28.5871 42.6344 28.5871 41.7895C28.5871 40.9446 29.2752 40.2597 30.1241 40.2597Z" fill="#30305D"/>
<path d="M30.1241 28.7592C30.973 28.7592 31.6611 29.4441 31.6611 30.289C31.6611 31.1339 30.973 31.8188 30.1241 31.8188C29.2752 31.8188 28.5871 31.1339 28.5871 30.289C28.5871 29.4441 29.2752 28.7592 30.1241 28.7592Z" fill="#30305D"/>
<path d="M30.1241 20.3106C29.2787 20.3106 28.5871 19.6264 28.5871 18.7808C28.5871 17.9352 29.271 17.251 30.1241 17.251C30.9694 17.251 31.6611 17.9352 31.6611 18.7808C31.6534 19.6264 30.9694 20.3106 30.1241 20.3106Z" fill="#30305D"/>
<path d="M30.1241 5.75055C30.973 5.75055 31.6611 6.43544 31.6611 7.28033C31.6611 8.12523 30.973 8.81012 30.1241 8.81012C29.2752 8.81012 28.5871 8.12523 28.5871 7.28033C28.5871 6.43544 29.2752 5.75055 30.1241 5.75055Z" fill="#30305D"/>
<path d="M35.7726 37.5614C34.9273 37.5614 34.2356 36.8772 34.2356 36.0316C34.2356 35.1859 34.9196 34.5017 35.7726 34.5017C36.618 34.5017 37.3097 35.1859 37.3097 36.0316C37.3097 36.8772 36.618 37.5614 35.7726 37.5614Z" fill="#30305D"/>
<path d="M35.7726 26.0609C34.9273 26.0609 34.2356 25.3767 34.2356 24.5311C34.2356 23.6855 34.9196 23.0013 35.7726 23.0013C36.618 23.0013 37.3097 23.6855 37.3097 24.5311C37.3097 25.3767 36.618 26.0609 35.7726 26.0609Z" fill="#30305D"/>
<path d="M35.7726 14.5604C34.9273 14.5604 34.2356 13.8762 34.2356 13.0306C34.2356 12.185 34.9196 11.5007 35.7726 11.5007C36.618 11.5007 37.3097 12.185 37.3097 13.0306C37.3097 13.8762 36.618 14.5604 35.7726 14.5604Z" fill="#30305D"/>
<path d="M35.7726 3.05988C34.9273 3.05988 34.2356 2.37572 34.2356 1.53009C34.2356 0.684465 34.9196 0.000244141 35.7726 0.000244141C36.618 0.000244141 37.3097 0.684465 37.3097 1.53009C37.3097 2.37572 36.618 3.05988 35.7726 3.05988Z" fill="#30305D"/>
<path d="M41.498 40.2597C42.3469 40.2597 43.0351 40.9446 43.0351 41.7895C43.0351 42.6344 42.3469 43.3193 41.498 43.3193C40.6492 43.3193 39.961 42.6344 39.961 41.7895C39.961 40.9446 40.6492 40.2597 41.498 40.2597Z" fill="#30305D"/>
<path d="M41.498 28.7592C42.3469 28.7592 43.0351 29.4441 43.0351 30.289C43.0351 31.1339 42.3469 31.8188 41.498 31.8188C40.6492 31.8188 39.961 31.1339 39.961 30.289C39.961 29.4441 40.6492 28.7592 41.498 28.7592Z" fill="#30305D"/>
<path d="M41.498 17.251C42.3469 17.251 43.0351 17.9359 43.0351 18.7808C43.0351 19.6257 42.3469 20.3106 41.498 20.3106C40.6492 20.3106 39.961 19.6257 39.961 18.7808C39.961 17.9359 40.6492 17.251 41.498 17.251Z" fill="#30305D"/>
<path d="M41.498 5.75055C42.3469 5.75055 43.0351 6.43544 43.0351 7.28033C43.0351 8.12523 42.3469 8.81012 41.498 8.81012C40.6492 8.81012 39.961 8.12523 39.961 7.28033C39.961 6.43544 40.6492 5.75055 41.498 5.75055Z" fill="#30305D"/>
<path d="M24.537 37.5614C23.6917 37.5614 23 36.8772 23 36.0316C23 35.1859 23.684 34.5017 24.537 34.5017C25.3824 34.5017 26.074 35.1859 26.074 36.0316C26.074 36.8772 25.3901 37.5614 24.537 37.5614Z" fill="#30305D"/>
<path d="M24.537 26.0609C23.6917 26.0609 23 25.3767 23 24.5311C23 23.6855 23.684 23.0013 24.537 23.0013C25.3824 23.0013 26.074 23.6855 26.074 24.5311C26.074 25.3767 25.3901 26.0609 24.537 26.0609Z" fill="#30305D"/>
<path d="M24.537 14.5604C23.6917 14.5604 23 13.8762 23 13.0306C23 12.185 23.684 11.5007 24.537 11.5007C25.3824 11.5007 26.074 12.185 26.074 13.0306C26.074 13.8762 25.3901 14.5604 24.537 14.5604Z" fill="#30305D"/>
<path d="M24.537 3.05988C23.6917 3.05988 23 2.37572 23 1.53009C23 0.684465 23.684 0.000244141 24.537 0.000244141C25.3824 0.000244141 26.074 0.684465 26.074 1.53009C26.074 2.37572 25.3901 3.05988 24.537 3.05988Z" fill="#30305D"/>
<path d="M0 26.1463L0 16L3.89578 16C4.64472 16 5.28277 16.147 5.80992 16.4409C6.33707 16.7316 6.73887 17.1362 7.0153 17.6547C7.29495 18.17 7.43477 18.7645 7.43477 19.4383C7.43477 20.112 7.29334 20.7066 7.01048 21.2218C6.72762 21.737 6.31779 22.1383 5.78099 22.4257C5.24741 22.713 4.60133 22.8567 3.84275 22.8567L1.35967 22.8567L1.35967 21.1376L3.50524 21.1376C3.90703 21.1376 4.23811 21.0666 4.49847 20.9245C4.76205 20.7792 4.95812 20.5794 5.0867 20.3251C5.21848 20.0675 5.28438 19.7718 5.28438 19.4383C5.28438 19.1014 5.21848 18.8074 5.0867 18.5564C4.95812 18.3021 4.76205 18.1056 4.49847 17.9668C4.23489 17.8248 3.9006 17.7538 3.4956 17.7538L2.08771 17.7538L2.08771 26.1463L0 26.1463Z" fill="#4791FF"/>
<path d="M10.8062 16L10.8062 26.1463L8.75225 26.1463L8.75225 16L10.8062 16Z" fill="#4791FF"/>
<path d="M14.5634 26.29C14.0909 26.29 13.6698 26.2058 13.3001 26.0373C12.9305 25.8656 12.638 25.6129 12.4226 25.2793C12.2105 24.9425 12.1044 24.523 12.1044 24.021C12.1044 23.5982 12.1799 23.2431 12.331 22.9558C12.4821 22.6684 12.6878 22.4372 12.9482 22.2622C13.2085 22.0871 13.5043 21.955 13.8353 21.8659C14.1696 21.7767 14.52 21.7139 14.8864 21.6776C15.3171 21.6314 15.6643 21.5884 15.9279 21.5488C16.1914 21.5058 16.3827 21.4431 16.5016 21.3605C16.6206 21.2779 16.68 21.1557 16.68 20.9939V20.9642C16.68 20.6504 16.5836 20.4076 16.3907 20.2359C16.2011 20.0642 15.9311 19.9783 15.5807 19.9783C15.2111 19.9783 14.917 20.0625 14.6984 20.2309C14.4798 20.3961 14.3352 20.6042 14.2644 20.8552L12.3648 20.6966C12.4612 20.2342 12.6508 19.8346 12.9337 19.4977C13.2166 19.1575 13.5814 18.8966 14.0282 18.7149C14.4782 18.53 14.9989 18.4375 15.5904 18.4375C16.0018 18.4375 16.3956 18.487 16.7716 18.5861C17.1509 18.6852 17.4868 18.8388 17.7793 19.0469C18.075 19.255 18.3081 19.5225 18.4784 19.8495C18.6488 20.1731 18.734 20.5612 18.734 21.0137L18.734 26.1463L16.7861 26.1463L16.7861 25.0911H16.7282C16.6093 25.3289 16.4502 25.5386 16.2509 25.7203C16.0516 25.8986 15.8121 26.039 15.5325 26.1414C15.2529 26.2405 14.9298 26.29 14.5634 26.29ZM15.1516 24.8335C15.4538 24.8335 15.7205 24.7724 15.952 24.6502C16.1834 24.5246 16.365 24.3562 16.4968 24.1448C16.6286 23.9334 16.6945 23.694 16.6945 23.4264L16.6945 22.6189C16.6302 22.6618 16.5418 22.7015 16.4293 22.7378C16.32 22.7708 16.1963 22.8022 16.058 22.8319C15.9198 22.8584 15.7816 22.8831 15.6434 22.9062C15.5052 22.9261 15.3798 22.9442 15.2673 22.9607C15.0262 22.9971 14.8157 23.0549 14.6357 23.1341C14.4557 23.2134 14.3159 23.3208 14.2162 23.4562C14.1166 23.5883 14.0668 23.7534 14.0668 23.9516C14.0668 24.2389 14.168 24.4586 14.3705 24.6105C14.5762 24.7591 14.8366 24.8335 15.1516 24.8335Z" fill="#4791FF"/>
<path d="M21.3304 29C21.07 29 20.8257 28.9785 20.5975 28.9356C20.3725 28.896 20.1861 28.8448 20.0382 28.782L20.5011 27.2066C20.7421 27.2825 20.9591 27.3238 21.152 27.3304C21.348 27.337 21.5168 27.2908 21.6582 27.1917C21.8029 27.0926 21.9202 26.9242 22.0102 26.6864L22.1307 26.3643L19.4741 18.5366L21.6341 18.5366L23.1674 24.125H23.2445L24.7922 18.5366L26.9667 18.5366L24.0883 26.9688C23.9501 27.3783 23.762 27.735 23.5242 28.0389C23.2895 28.346 22.9922 28.5822 22.6322 28.7473C22.2722 28.9158 21.8382 29 21.3304 29Z" fill="#4791FF"/>
<path d="M28.0564 26.1463L28.0564 16L30.1103 16L30.1103 19.8148L30.173 19.8148C30.263 19.61 30.3932 19.4019 30.5636 19.1905C30.7371 18.9759 30.9621 18.7975 31.2386 18.6555C31.5182 18.5102 31.8654 18.4375 32.28 18.4375C32.82 18.4375 33.3183 18.5828 33.7747 18.8735C34.2311 19.1608 34.596 19.5951 34.8692 20.1764C35.1424 20.7544 35.279 21.4794 35.279 22.3514C35.279 23.2002 35.1456 23.9169 34.8788 24.5015C34.6152 25.0828 34.2552 25.5238 33.7988 25.8243C33.3456 26.1216 32.8377 26.2702 32.2752 26.2702C31.8766 26.2702 31.5375 26.2025 31.2579 26.0671C30.9814 25.9317 30.7548 25.7616 30.578 25.5568C30.4012 25.3487 30.2662 25.139 30.173 24.9276H30.0814L30.0814 26.1463H28.0564ZM30.0669 22.3415C30.0669 22.794 30.128 23.1886 30.2502 23.5255C30.3723 23.8624 30.5491 24.125 30.7805 24.3133C31.012 24.4982 31.2932 24.5907 31.6243 24.5907C31.9586 24.5907 32.2414 24.4966 32.4729 24.3083C32.7043 24.1167 32.8795 23.8525 32.9984 23.5156C33.1206 23.1754 33.1816 22.784 33.1816 22.3415C33.1816 21.9022 33.1222 21.5158 33.0032 21.1822C32.8843 20.8486 32.7091 20.5877 32.4777 20.3994C32.2463 20.2111 31.9618 20.117 31.6243 20.117C31.29 20.117 31.0071 20.2078 30.7757 20.3895C30.5475 20.5711 30.3723 20.8288 30.2502 21.1623C30.128 21.4959 30.0669 21.889 30.0669 22.3415Z" fill="#4791FF"/>
<path d="M41.3987 22.9062L41.3987 18.5366L43.4527 18.5366L43.4527 26.1463L41.4807 26.1463V24.7641H41.4035C41.2364 25.21 40.9583 25.5683 40.5694 25.8392C40.1837 26.11 39.7128 26.2454 39.1567 26.2454C38.6617 26.2454 38.2262 26.1298 37.8501 25.8986C37.474 25.6674 37.1799 25.3388 36.9677 24.9127C36.7588 24.4867 36.6527 23.9764 36.6495 23.3819L36.6495 18.5366L38.7035 18.5366L38.7035 23.0053C38.7067 23.4545 38.824 23.8096 39.0555 24.0705C39.2869 24.3314 39.5971 24.4619 39.986 24.4619C40.2335 24.4619 40.4649 24.4041 40.6803 24.2885C40.8957 24.1696 41.0692 23.9945 41.201 23.7633C41.336 23.5321 41.4019 23.2464 41.3987 22.9062Z" fill="#4791FF"/>
<path d="M46.3637 29C46.1033 29 45.859 28.9785 45.6308 28.9356C45.4058 28.896 45.2194 28.8448 45.0715 28.782L45.5344 27.2066C45.7754 27.2825 45.9924 27.3238 46.1853 27.3304C46.3813 27.337 46.5501 27.2908 46.6915 27.1917C46.8362 27.0926 46.9535 26.9242 47.0435 26.6864L47.164 26.3643L44.5074 18.5366H46.6674L48.2007 24.125H48.2778L49.8255 18.5366L52 18.5366L49.1216 26.9688C48.9833 27.3783 48.7953 27.735 48.5574 28.0389C48.3228 28.346 48.0255 28.5822 47.6655 28.7473C47.3055 28.9158 46.8715 29 46.3637 29Z" fill="#4791FF"/>
<path d="M55.4973 26.0568C55.0174 26.0568 54.5898 25.9704 54.2144 25.7976C53.839 25.6214 53.5419 25.3621 53.3232 25.0199C53.1077 24.6742 53 24.2438 53 23.7287C53 23.295 53.0767 22.9307 53.2301 22.6359C53.3836 22.341 53.5925 22.1038 53.8569 21.9242C54.1213 21.7446 54.4216 21.6091 54.7579 21.5176C55.0974 21.4261 55.4532 21.3617 55.8253 21.3244C56.2627 21.277 56.6153 21.2329 56.883 21.1922C57.1507 21.1482 57.3449 21.0838 57.4657 20.9991C57.5865 20.9144 57.6468 20.789 57.6468 20.6229V20.5924C57.6468 20.2705 57.5489 20.0214 57.3531 19.8452C57.1605 19.669 56.8862 19.5809 56.5304 19.5809C56.155 19.5809 55.8563 19.6673 55.6344 19.8401C55.4124 20.0095 55.2655 20.223 55.1937 20.4806L53.2644 20.3179C53.3623 19.8435 53.5549 19.4335 53.8422 19.0878C54.1295 18.7388 54.5 18.471 54.9537 18.2847C55.4107 18.0949 55.9396 18 56.5402 18C56.9581 18 57.3579 18.0508 57.7399 18.1525C58.1251 18.2542 58.4662 18.4117 58.7633 18.6252C59.0636 18.8387 59.3003 19.1132 59.4733 19.4487C59.6463 19.7808 59.7328 20.179 59.7328 20.6433L59.7328 25.9094L57.7546 25.9094V24.8267H57.6958C57.575 25.0707 57.4134 25.2859 57.2111 25.4723C57.0087 25.6553 56.7655 25.7993 56.4815 25.9043C56.1975 26.006 55.8694 26.0568 55.4973 26.0568ZM56.0946 24.5624C56.4015 24.5624 56.6724 24.4997 56.9075 24.3743C57.1425 24.2455 57.3269 24.0727 57.4608 23.8558C57.5946 23.6389 57.6615 23.3933 57.6615 23.1188V22.2902C57.5962 22.3343 57.5065 22.3749 57.3922 22.4122C57.2812 22.4461 57.1556 22.4783 57.0152 22.5088C56.8748 22.5359 56.7344 22.5613 56.5941 22.585C56.4537 22.6054 56.3264 22.624 56.2121 22.6409C55.9673 22.6782 55.7535 22.7375 55.5707 22.8189C55.3879 22.9002 55.2459 23.0103 55.1447 23.1493C55.0435 23.2848 54.9929 23.4543 54.9929 23.6576C54.9929 23.9524 55.0957 24.1778 55.3014 24.3336C55.5103 24.4861 55.7747 24.5624 56.0946 24.5624Z" fill="#FAC335"/>
<path d="M64.7395 29C64.0638 29 63.4844 28.9034 63.0012 28.7103C62.5214 28.5205 62.1395 28.2612 61.8555 27.9325C61.5715 27.6038 61.387 27.2344 61.3021 26.8244L63.2314 26.555C63.2901 26.7109 63.3832 26.8566 63.5105 26.9921C63.6378 27.1277 63.8059 27.2361 64.0148 27.3175C64.227 27.4022 64.4849 27.4445 64.7885 27.4445C65.2422 27.4445 65.616 27.3293 65.9098 27.0989C66.2069 26.8718 66.3554 26.4906 66.3554 25.9552V24.5268H66.2673C66.1759 24.7437 66.0387 24.9487 65.8559 25.1419C65.6731 25.335 65.4381 25.4926 65.1508 25.6146C64.8636 25.7366 64.5208 25.7976 64.1226 25.7976C63.5578 25.7976 63.0437 25.662 62.5801 25.3909C62.1199 25.1165 61.7526 24.6979 61.4784 24.1354C61.2075 23.5695 61.072 22.8544 61.072 21.9903C61.072 21.1058 61.2107 20.3671 61.4882 19.774C61.7657 19.181 62.1346 18.7371 62.5948 18.4422C63.0584 18.1474 63.566 18 64.1177 18C64.5388 18 64.8913 18.0746 65.1753 18.2237C65.4593 18.3694 65.6878 18.5524 65.8609 18.7726C66.0371 18.9895 66.1726 19.203 66.2673 19.4131H66.3456V18.1017L68.4169 18.1017L68.4169 25.9857C68.4169 26.6499 68.2602 27.2056 67.9468 27.653C67.6334 28.1003 67.1992 28.4358 66.6443 28.6594C66.0926 28.8865 65.4577 29 64.7395 29ZM64.7836 24.171C65.1198 24.171 65.4038 24.0846 65.6356 23.9117C65.8706 23.7355 66.0502 23.4848 66.1742 23.1594C66.3015 22.8307 66.3652 22.4376 66.3652 21.9801C66.3652 21.5226 66.3032 21.1262 66.1791 20.7907C66.0551 20.4518 65.8755 20.1892 65.6405 20.0028C65.4055 19.8164 65.1198 19.7232 64.7836 19.7232C64.4408 19.7232 64.1519 19.8198 63.9169 20.0129C63.6819 20.2027 63.504 20.467 63.3832 20.8059C63.2624 21.1448 63.202 21.5362 63.202 21.9801C63.202 22.4308 63.2624 22.8205 63.3832 23.1493C63.5072 23.4746 63.6851 23.727 63.9169 23.9067C64.1519 24.0829 64.4408 24.171 64.7836 24.171Z" fill="#FAC335"/>
<path d="M73.5044 26.0619C72.7307 26.0619 72.0648 25.8993 71.5066 25.5739C70.9516 25.2452 70.524 24.781 70.2237 24.1811C69.9234 23.5779 69.7732 22.8646 69.7732 22.0411C69.7732 21.238 69.9234 20.5331 70.2237 19.9265C70.524 19.3199 70.9467 18.8472 71.4919 18.5083C72.0403 18.1694 72.6834 18 73.4212 18C73.9173 18 74.3793 18.083 74.8069 18.2491C75.2378 18.4117 75.6132 18.6574 75.9331 18.9861C76.2563 19.3148 76.5076 19.7283 76.6872 20.2264C76.8667 20.7212 76.9565 21.3007 76.9565 21.9649V22.5596L70.6056 22.5596V21.2177L74.9929 21.2177C74.9929 20.9059 74.9277 20.6297 74.7971 20.3891C74.6665 20.1485 74.4853 19.9604 74.2536 19.8249C74.0251 19.6859 73.759 19.6165 73.4554 19.6165C73.1388 19.6165 72.8581 19.6927 72.6132 19.8452C72.3717 19.9943 72.1823 20.1959 72.0452 20.4501C71.9081 20.7009 71.8379 20.9804 71.8347 21.2888V22.5647C71.8347 22.951 71.9032 23.2848 72.0403 23.5661C72.1807 23.8473 72.3782 24.0642 72.6328 24.2167C72.8874 24.3692 73.1894 24.4455 73.5387 24.4455C73.7704 24.4455 73.9826 24.4116 74.1752 24.3438C74.3678 24.276 74.5327 24.1744 74.6698 24.0388C74.8069 23.9033 74.9113 23.7372 74.9832 23.5407L76.9124 23.6728C76.8145 24.154 76.6137 24.5742 76.3101 24.9335C76.0098 25.2893 75.6214 25.5672 75.1448 25.7671C74.6714 25.9636 74.1246 26.0619 73.5044 26.0619Z" fill="#FAC335"/>
<path d="M80.4037 21.3956L80.4037 25.9094L78.3177 25.9094L78.3177 18.1017L80.3057 18.1017V19.4792H80.3939C80.5604 19.0251 80.8395 18.6659 81.2312 18.4016C81.6229 18.1339 82.0979 18 82.6561 18C83.1784 18 83.6338 18.1186 84.0222 18.3558C84.4107 18.593 84.7127 18.9319 84.9281 19.3725C85.1436 19.8096 85.2513 20.3315 85.2513 20.9381L85.2513 25.9094L83.1653 25.9094L83.1653 21.3244C83.1686 20.8466 83.0511 20.4738 82.8128 20.2061C82.5745 19.935 82.2464 19.7994 81.8286 19.7994C81.5478 19.7994 81.2997 19.8621 81.0843 19.9875C80.8721 20.1129 80.7056 20.2959 80.5848 20.5365C80.4673 20.7737 80.4069 21.0601 80.4037 21.3956Z" fill="#FAC335"/>
<path d="M90.2935 26.0619C89.5231 26.0619 88.8605 25.8925 88.3055 25.5536C87.7538 25.2113 87.3295 24.7369 87.0324 24.1303C86.7386 23.5237 86.5917 22.8256 86.5917 22.036C86.5917 21.2363 86.7402 20.5348 87.0373 19.9316C87.3376 19.325 87.7636 18.8523 88.3153 18.5134C88.867 18.1711 89.5231 18 90.2837 18C90.9399 18 91.5144 18.1237 92.0073 18.3711C92.5002 18.6185 92.8903 18.9658 93.1776 19.4131C93.4649 19.8604 93.6232 20.3857 93.6526 20.9889L91.6841 20.9889C91.6287 20.5992 91.4818 20.2857 91.2435 20.0485C91.0084 19.8079 90.6999 19.6876 90.318 19.6876C89.9948 19.6876 89.7125 19.7791 89.4709 19.9621C89.2326 20.1417 89.0465 20.4043 88.9127 20.75C88.7788 21.0957 88.7119 21.5142 88.7119 22.0055C88.7119 22.5037 88.7772 22.9273 88.9078 23.2763C89.0416 23.6254 89.2293 23.8914 89.4709 24.0744C89.7125 24.2574 89.9948 24.3489 90.318 24.3489C90.5563 24.3489 90.7701 24.2981 90.9595 24.1964C91.1521 24.0947 91.3104 23.9473 91.4344 23.7542C91.5617 23.5576 91.645 23.3221 91.6841 23.0476L93.6526 23.0476C93.6199 23.644 93.4632 24.1693 93.1825 24.6234C92.905 25.0741 92.5215 25.4265 92.0318 25.6807C91.5421 25.9348 90.9627 26.0619 90.2935 26.0619Z" fill="#FAC335"/>
<path d="M96.2759 28.8373C96.0115 28.8373 95.7634 28.8153 95.5316 28.7713C95.3031 28.7306 95.1138 28.6781 94.9636 28.6137L95.4337 26.9972C95.6785 27.0752 95.8989 27.1175 96.0947 27.1243C96.2939 27.1311 96.4652 27.0836 96.6089 26.982C96.7558 26.8803 96.8749 26.7075 96.9663 26.4635L97.0887 26.1331L94.3907 18.1017L96.5844 18.1017L98.1415 23.8355H98.2198L99.7916 18.1017L102 18.1017L99.0767 26.7532C98.9364 27.1734 98.7454 27.5394 98.5039 27.8512C98.2656 28.1664 97.9636 28.4087 97.598 28.5781C97.2324 28.7509 96.7917 28.8373 96.2759 28.8373Z" fill="#FAC335"/>
</svg>
